<svg width="30" height="30" viewBox="0 0 30 30" fill="none" xmlns="http://www.w3.org/2000/svg">
<g clip-path="url(#clip0_59_14)">
<path d="M15 30C6.71573 30 0 23.2843 0 15C0 6.71573 6.71573 0 15 0C23.2843 0 30 6.71573 30 15C30 23.2843 23.2843 30 15 30Z" fill="#74A84A"/>
<path d="M11.5243 6.5625C8.80072 6.5625 6.5625 8.79772 6.5625 11.5243V18.4757C6.5625 21.1993 8.79772 23.4375 11.5243 23.4375H18.4757C21.1993 23.4375 23.4375 21.2023 23.4375 18.4757V11.5243C23.4375 8.80072 21.2023 6.5625 18.4757 6.5625H11.5243ZM11.5243 8.09659H18.4757C20.3723 8.09659 21.9034 9.62768 21.9034 11.5243V18.4757C21.9034 20.3723 20.3723 21.9034 18.4757 21.9034H11.5243C9.62768 21.9034 8.09659 20.3723 8.09659 18.4757V11.5243C8.09659 9.62768 9.62768 8.09659 11.5243 8.09659ZM19.5304 9.7745C19.1438 9.7745 18.8352 10.0831 18.8352 10.4696C18.8352 10.8562 19.1438 11.1648 19.5304 11.1648C19.9169 11.1648 20.2255 10.8562 20.2255 10.4696C20.2255 10.0831 19.9169 9.7745 19.5304 9.7745ZM15 10.3977C12.4682 10.3977 10.3977 12.4682 10.3977 15C10.3977 17.5318 12.4682 19.6023 15 19.6023C17.5318 19.6023 19.6023 17.5318 19.6023 15C19.6023 12.4682 17.5318 10.3977 15 10.3977ZM15 11.9318C16.7049 11.9318 18.0682 13.2951 18.0682 15C18.0682 16.7049 16.7049 18.0682 15 18.0682C13.2951 18.0682 11.9318 16.7049 11.9318 15C11.9318 13.2951 13.2951 11.9318 15 11.9318Z" fill="white"/>
</g>
<defs>
<clipPath id="clip0_59_14">
<rect width="30" height="30" fill="white"/>
</clipPath>
</defs>
</svg>
