<svg width="30" height="30" viewBox="0 0 30 30" fill="none" xmlns="http://www.w3.org/2000/svg">
<g clip-path="url(#clip0_59_2)">
<path d="M15 30C6.71573 30 0 23.2843 0 15C0 6.71573 6.71573 0 15 0C23.2843 0 30 6.71573 30 15C30 23.2843 23.2843 30 15 30Z" fill="#74A84A"/>
<path d="M11.2609 21H8V11.4545H11.2609V21ZM9.63109 10.1818C8.72913 10.1818 8 9.46845 8 8.59027C8 7.71209 8.73043 7 9.63109 7C10.5298 7 11.2609 7.71336 11.2609 8.59027C11.2609 9.46845 10.5298 10.1818 9.63109 10.1818ZM23 21H19.865V16.3545C19.865 15.2466 19.8435 13.8218 18.2352 13.8218C16.6028 13.8218 16.3517 15.0284 16.3517 16.2744V21H13.2174V11.4475H16.2265V12.7527H16.2689C16.6876 12.0018 17.7109 11.2102 19.237 11.2102C22.413 11.2102 23 13.1886 23 15.7608V21Z" fill="white"/>
</g>
<defs>
<clipPath id="clip0_59_2">
<rect width="30" height="30" fill="white"/>
</clipPath>
</defs>
</svg>
