<svg width="30" height="30" viewBox="0 0 30 30" fill="none" xmlns="http://www.w3.org/2000/svg">
<g clip-path="url(#clip0_59_8)">
<path d="M15 30C6.71573 30 0 23.2843 0 15C0 6.71573 6.71573 0 15 0C23.2843 0 30 6.71573 30 15C30 23.2843 23.2843 30 15 30Z" fill="#74A84A"/>
<path d="M7.2002 7.80078L13.1605 16.2383L7.32644 22.8008H8.61902L13.7314 17.0463L17.7965 22.8008H22.6802L16.4531 13.9863L21.9482 7.80079H20.6595L15.8814 13.176L12.0839 7.80079L7.2002 7.80078ZM8.74367 8.59025H11.6559L21.1367 22.0113H18.2244L8.74367 8.59025Z" fill="white"/>
</g>
<defs>
<clipPath id="clip0_59_8">
<rect width="30" height="30" fill="white"/>
</clipPath>
</defs>
</svg>
